<?xml version="1.0" encoding="utf-8"?>
<!-- Generator: Adobe Illustrator 22.1.0, SVG Export Plug-In . SVG Version: 6.00 Build 0)  -->
<svg version="1.1" id="Layer_1" xmlns="http://www.w3.org/2000/svg" xmlns:xlink="http://www.w3.org/1999/xlink" x="0px" y="0px"
	 viewBox="0 0 222 107" style="enable-background:new 0 0 222 107;" xml:space="preserve">
<style type="text/css">
	.st0{fill:#D5D5D5;}
</style>
<path class="st0" d="M52,28.3H12.2c-6.6,0-12-5.4-12-12V12c0-6.6,5.4-12,12-12H52c6.6,0,12,5.4,12,12v4.3C64,22.9,58.6,28.3,52,28.3
	z"/>
<path class="st0" d="M131,28.3H91.2c-6.6,0-12-5.4-12-12V12c0-6.6,5.4-12,12-12H131c6.6,0,12,5.4,12,12v4.3
	C143,22.9,137.6,28.3,131,28.3z"/>
<path class="st0" d="M210,28.3h-39.7c-6.6,0-12-5.4-12-12V12c0-6.6,5.4-12,12-12H210c6.6,0,12,5.4,12,12v4.3
	C222,22.9,216.6,28.3,210,28.3z"/>
<path class="st0" d="M52,67.6H12.2c-6.6,0-12-5.4-12-12v-4.3c0-6.6,5.4-12,12-12H52c6.6,0,12,5.4,12,12v4.3
	C64,62.2,58.6,67.6,52,67.6z"/>
<path class="st0" d="M131,67.6H91.2c-6.6,0-12-5.4-12-12v-4.3c0-6.6,5.4-12,12-12H131c6.6,0,12,5.4,12,12v4.3
	C143,62.2,137.6,67.6,131,67.6z"/>
<path class="st0" d="M210,67.6h-39.7c-6.6,0-12-5.4-12-12v-4.3c0-6.6,5.4-12,12-12H210c6.6,0,12,5.4,12,12v4.3
	C222,62.2,216.6,67.6,210,67.6z"/>
<path class="st0" d="M52,106.8H12.2c-6.6,0-12-5.4-12-12v-4.3c0-6.6,5.4-12,12-12H52c6.6,0,12,5.4,12,12v4.3
	C64,101.4,58.6,106.8,52,106.8z"/>
<path class="st0" d="M131,106.8H91.2c-6.6,0-12-5.4-12-12v-4.3c0-6.6,5.4-12,12-12H131c6.6,0,12,5.4,12,12v4.3
	C143,101.4,137.6,106.8,131,106.8z"/>
<path class="st0" d="M210,106.8h-39.7c-6.6,0-12-5.4-12-12v-4.3c0-6.6,5.4-12,12-12H210c6.6,0,12,5.4,12,12v4.3
	C222,101.4,216.6,106.8,210,106.8z"/>
</svg>
