<?xml version="1.0" encoding="utf-8"?>
<!-- Generator: Adobe Illustrator 22.1.0, SVG Export Plug-In . SVG Version: 6.00 Build 0)  -->
<svg version="1.1" id="Layer_1" xmlns="http://www.w3.org/2000/svg" xmlns:xlink="http://www.w3.org/1999/xlink" x="0px" y="0px"
	 viewBox="0 0 222 107" style="enable-background:new 0 0 222 107;" xml:space="preserve">
<style type="text/css">
	.st0{fill:#414141;}
</style>
<path class="st0" d="M51.8,28.3H12c-6.6,0-12-5.4-12-12V12C0,5.4,5.4,0,12,0h39.8c6.6,0,12,5.4,12,12v4.3
	C63.8,22.9,58.4,28.3,51.8,28.3z"/>
<path class="st0" d="M130.9,28.3H91.1c-6.6,0-12-5.4-12-12V12c0-6.6,5.4-12,12-12h39.8c6.6,0,12,5.4,12,12v4.3
	C142.9,22.9,137.5,28.3,130.9,28.3z"/>
<path class="st0" d="M210,28.3h-39.8c-6.6,0-12-5.4-12-12V12c0-6.6,5.4-12,12-12H210c6.6,0,12,5.4,12,12v4.3
	C222,22.9,216.6,28.3,210,28.3z"/>
<path class="st0" d="M51.8,67.7H12c-6.6,0-12-5.4-12-12v-4.3c0-6.6,5.4-12,12-12h39.8c6.6,0,12,5.4,12,12v4.3
	C63.8,62.3,58.4,67.7,51.8,67.7z"/>
<path class="st0" d="M130.9,67.7H91.1c-6.6,0-12-5.4-12-12v-4.3c0-6.6,5.4-12,12-12h39.8c6.6,0,12,5.4,12,12v4.3
	C142.9,62.3,137.5,67.7,130.9,67.7z"/>
<path class="st0" d="M210,67.7h-39.8c-6.6,0-12-5.4-12-12v-4.3c0-6.6,5.4-12,12-12H210c6.6,0,12,5.4,12,12v4.3
	C222,62.3,216.6,67.7,210,67.7z"/>
<path class="st0" d="M51.8,107H12c-6.6,0-12-5.4-12-12v-4.3c0-6.6,5.4-12,12-12h39.8c6.6,0,12,5.4,12,12V95
	C63.8,101.6,58.4,107,51.8,107z"/>
<path class="st0" d="M130.9,107H91.1c-6.6,0-12-5.4-12-12v-4.3c0-6.6,5.4-12,12-12h39.8c6.6,0,12,5.4,12,12V95
	C142.9,101.6,137.5,107,130.9,107z"/>
<path class="st0" d="M210,107h-39.8c-6.6,0-12-5.4-12-12v-4.3c0-6.6,5.4-12,12-12H210c6.6,0,12,5.4,12,12V95
	C222,101.6,216.6,107,210,107z"/>
</svg>
